<svg xmlns="http://www.w3.org/2000/svg" width="137.189" height="42.957" viewBox="0 0 137.189 42.957">
  <g id="Airbnb" transform="translate(-0.426)">
    <path id="Shape" d="M29.446,42.872a11.265,11.265,0,0,1-4.286-1.463,22.73,22.73,0,0,1-5.315-4.472,21.774,21.774,0,0,1-5.314,4.472,11.254,11.254,0,0,1-4.286,1.463,9.553,9.553,0,0,1-1.114.085,8.843,8.843,0,0,1-3.471-.688A9.158,9.158,0,0,1,.089,35.132,9.745,9.745,0,0,1,.6,30.488c.215-.561.431-1.081.643-1.548.158-.356.317-.706.47-1.043l0-.005c.182-.4.353-.775.514-1.145l.042-.086c2.747-5.99,5.845-12.347,9.472-19.436l.129-.258c.337-.633.679-1.319,1.01-1.983l.019-.038A14.824,14.824,0,0,1,14.446,2.58,7.2,7.2,0,0,1,19.931,0a6.948,6.948,0,0,1,5.443,2.666,11.45,11.45,0,0,1,1.443,2.182l.1.183c.319.638.679,1.362,1.029,2.021l.129.257c3.226,6.224,6.413,12.764,9.472,19.436l.042.043c.161.366.331.741.511,1.137.156.343.315.694.475,1.056.143.314.287.672.427,1.019.072.179.144.356.215.529a8.163,8.163,0,0,1,.386,4.6,9.129,9.129,0,0,1-5.572,7.138,8.66,8.66,0,0,1-3.471.688A9.609,9.609,0,0,1,29.446,42.872ZM16.547,4.429a9.438,9.438,0,0,0-1.2,1.892c-.169.319-.342.655-.509.979s-.347.672-.52,1l-.128.258c-3.124,6.024-6.3,12.52-9.429,19.307l-.042.086c-.337.718-.685,1.461-.986,2.15-.065.158-.13.307-.194.451a8.5,8.5,0,0,0-.364.924,7.138,7.138,0,0,0-.385,3.354,6.373,6.373,0,0,0,3.9,5.031,6.812,6.812,0,0,0,2.5.472,6.932,6.932,0,0,0,.76-.042A8.417,8.417,0,0,0,13.2,39.173,19.354,19.354,0,0,0,18.089,35c-2.8-3.5-4.544-6.713-5.186-9.545a8.914,8.914,0,0,1-.214-3.656,6.97,6.97,0,0,1,1.157-2.923,7.349,7.349,0,0,1,6.043-3.054,7.173,7.173,0,0,1,6.043,3.054A6.963,6.963,0,0,1,27.089,21.8a10.789,10.789,0,0,1-.214,3.656c-.651,2.869-2.395,6.066-5.186,9.5a20.119,20.119,0,0,0,4.885,4.171,8.417,8.417,0,0,0,3.257,1.118,7.184,7.184,0,0,0,.818.048,6.29,6.29,0,0,0,2.44-.478,6.372,6.372,0,0,0,3.9-5.031,7.219,7.219,0,0,0-.3-3.311,8.262,8.262,0,0,0-.366-.933c-.062-.142-.126-.288-.191-.442-.171-.344-.334-.715-.491-1.073s-.322-.733-.494-1.077v-.043c-2.956-6.4-6.113-12.915-9.385-19.35L25.632,8.3c-.172-.324-.346-.664-.517-.994l0-.005,0-.007c-.166-.322-.337-.655-.506-.972a9.449,9.449,0,0,0-1.2-1.892,4.489,4.489,0,0,0-6.857,0Zm-.429,15.91a4.2,4.2,0,0,0-.686,1.806,6.976,6.976,0,0,0,.129,2.623,21.314,21.314,0,0,0,4.329,8,21.936,21.936,0,0,0,4.328-8,6.918,6.918,0,0,0,.129-2.623,4.163,4.163,0,0,0-.686-1.806,4.392,4.392,0,0,0-3.771-1.892A4.522,4.522,0,0,0,16.117,20.339Zm108.6,10.319v.732a.617.617,0,0,1-.6.6h-3.471V8.041h4.114v9.073a5.446,5.446,0,0,1,4.157-1.72,8.152,8.152,0,0,1,5.872,2.419,8.606,8.606,0,0,1,2.4,6.095,8.59,8.59,0,0,1-2.406,6.1,8.215,8.215,0,0,1-5.909,2.418A5.383,5.383,0,0,1,124.718,30.659Zm.043-9.675v5.762a4.207,4.207,0,0,0,3.471,1.763,4.493,4.493,0,0,0,4.843-4.644,4.493,4.493,0,0,0-4.843-4.644A4.628,4.628,0,0,0,124.761,20.984ZM89.574,30.659v.732a.616.616,0,0,1-.6.6H85.5V8.041h4.114v9.073a5.446,5.446,0,0,1,4.157-1.72,8.2,8.2,0,0,1,5.879,2.393,8.488,8.488,0,0,1,2.393,6.121,8.593,8.593,0,0,1-2.4,6.1,8.216,8.216,0,0,1-5.91,2.418A5.383,5.383,0,0,1,89.574,30.659Zm.043-9.675v5.762a4.208,4.208,0,0,0,3.471,1.763,4.493,4.493,0,0,0,4.843-4.644,4.493,4.493,0,0,0-4.843-4.644A4.631,4.631,0,0,0,89.618,20.984ZM50.736,30a8.609,8.609,0,0,1-2.389-6.1,8.594,8.594,0,0,1,2.4-6.111,8.226,8.226,0,0,1,5.909-2.4,5.439,5.439,0,0,1,4.157,1.72v-.688a.617.617,0,0,1,.6-.6H64.89V31.991H61.418a.587.587,0,0,1-.6-.6v-.732a5.3,5.3,0,0,1-4.157,1.763A8.217,8.217,0,0,1,50.736,30Zm1.768-6.1a4.493,4.493,0,0,0,4.843,4.644,4.272,4.272,0,0,0,3.471-1.763V21.027a4.346,4.346,0,0,0-3.471-1.763A4.493,4.493,0,0,0,52.5,23.908Zm61.885,8.127V22.876c0-2.666-.857-3.741-3.172-3.741a4.6,4.6,0,0,0-3.343,1.591V31.992h-4.114V15.824h3.257a.614.614,0,0,1,.6.6v.689a5.9,5.9,0,0,1,4.372-1.721,6.662,6.662,0,0,1,4.5,1.548c1.457,1.2,2.014,2.752,2.014,5.461v9.632Zm-40.243,0V15.824h3.471a.615.615,0,0,1,.6.6v.689a5.618,5.618,0,0,1,3.729-1.721,6.534,6.534,0,0,1,1.885.215v3.828s-3.429-1.161-5.572,1.29V32.035Zm-6.686-.042V15.824h4.115V31.992Zm-.728-21.2A2.757,2.757,0,0,1,69.518,8a2.795,2.795,0,1,1-2.785,2.794Z" transform="translate(0.425)" fill="#979797"/>
  </g>
</svg>
