<svg xmlns="http://www.w3.org/2000/svg" width="45.683" height="42.989" viewBox="0 0 45.683 42.989">
  <g id="Dropbox" transform="translate(-549.151 -509.381)">
    <path id="Path" d="M27.31,2.61,21.953,6.121,13.655,0,5.005,6.089,0,2.929V6.648l13.436,8.777L27.31,7V2.61Z" transform="translate(558.343 536.946)" fill="#979797"/>
    <path id="Esclusione_9" data-name="Esclusione 9" d="M546.428,263.61h0L538,257.159,551.1,248.8l8.167,6.253-12.841,8.558Zm-16.992,0h0l-12.579-8.228,8.1-6.583-8.957-7.5L529.238,233l8.76,7.438-13.041,8.36L538,257.159l-8.561,6.451ZM551.1,248.8,538,240.439,547.152,233l12.842,8.426L551.1,248.8Z" transform="translate(34 277)" fill="#979797" stroke="rgba(0,0,0,0)" stroke-miterlimit="10" stroke-width="1"/>
  </g>
</svg>
