<svg xmlns="http://www.w3.org/2000/svg" width="128.828" height="42.407" viewBox="0 0 128.828 42.407">
  <g id="Google" transform="translate(-0.172 -0.225)">
    <path id="Shape" d="M10.631,21.194a10.648,10.648,0,0,1-7.512-3.011A10.51,10.51,0,0,1,0,10.6a10.51,10.51,0,0,1,3.119-7.6A10.662,10.662,0,0,1,10.631,0a10.662,10.662,0,0,1,7.512,2.994,10.51,10.51,0,0,1,3.119,7.6,10.51,10.51,0,0,1-3.119,7.587A10.648,10.648,0,0,1,10.631,21.194Zm0-17.018A5.791,5.791,0,0,0,6.438,5.957,6.6,6.6,0,0,0,4.654,10.6a6.6,6.6,0,0,0,1.785,4.626,5.791,5.791,0,0,0,8.385,0A6.6,6.6,0,0,0,16.607,10.6a6.6,6.6,0,0,0-1.785-4.64A5.791,5.791,0,0,0,10.631,4.176Z" transform="translate(34.042 11.944)" fill="#979797"/>
    <path id="Shape-2" data-name="Shape" d="M10.63,21.194a10.647,10.647,0,0,1-7.511-3.011A10.511,10.511,0,0,1,0,10.6,10.511,10.511,0,0,1,3.119,3,10.659,10.659,0,0,1,10.63,0a10.662,10.662,0,0,1,7.512,2.994,10.51,10.51,0,0,1,3.119,7.6,10.511,10.511,0,0,1-3.119,7.587A10.648,10.648,0,0,1,10.63,21.194Zm0-17.018A5.791,5.791,0,0,0,6.438,5.957,6.6,6.6,0,0,0,4.653,10.6a6.6,6.6,0,0,0,1.785,4.626,5.792,5.792,0,0,0,8.385,0A6.6,6.6,0,0,0,16.608,10.6a6.6,6.6,0,0,0-1.785-4.64A5.792,5.792,0,0,0,10.63,4.176Z" transform="translate(56.975 11.944)" fill="#979797"/>
    <path id="Shape-3" data-name="Shape" d="M10.244,30.688a9.855,9.855,0,0,1-6.186-2.069A10.443,10.443,0,0,1,.851,24.443L4.9,22.757a5.841,5.841,0,0,0,5.336,3.76c3.6,0,5.657-2.264,5.657-6.212V18.781h-.163a7.221,7.221,0,0,1-5.58,2.408,10.058,10.058,0,0,1-7.064-3.05A10.608,10.608,0,0,1,0,10.636,10.732,10.732,0,0,1,3.089,3.075,10.021,10.021,0,0,1,10.153,0a7.344,7.344,0,0,1,5.58,2.37H15.9V.645h4.419V19.665c0,3.684-1.006,6.526-2.99,8.446A9.921,9.921,0,0,1,10.244,30.688Zm.325-26.511c-3.309,0-5.9,2.837-5.9,6.459a6.091,6.091,0,0,0,5.9,6.383c3.225,0,5.656-2.744,5.656-6.383C16.225,6.953,13.794,4.176,10.569,4.176Z" transform="translate(79.899 11.944)" fill="#979797"/>
    <path id="Path" d="M4.539,0V31.056H0V0Z" transform="translate(102.961 1.433)" fill="#979797"/>
    <path id="Shape-4" data-name="Shape" d="M10.516,21.194A10.433,10.433,0,0,1,3,18.124,10.633,10.633,0,0,1,0,10.6,10.849,10.849,0,0,1,2.95,2.935,9.75,9.75,0,0,1,9.995,0a8.844,8.844,0,0,1,6.267,2.484,11.693,11.693,0,0,1,2.8,4.257l.482,1.2L5.38,13.812a5.955,5.955,0,0,0,2.088,2.4,5.628,5.628,0,0,0,3.048.808,6.018,6.018,0,0,0,5.217-2.934L19.345,16.5A10.567,10.567,0,0,1,10.516,21.194ZM10.153,4.1a5.684,5.684,0,0,0-3.9,1.75,5.915,5.915,0,0,0-1.639,4.428l9.47-3.932A4.1,4.1,0,0,0,10.153,4.1Z" transform="translate(109.454 11.94)" fill="#979797"/>
    <path id="Path-2" data-name="Path" d="M16.689,19.56v-4.5h15.15a14.9,14.9,0,0,1,.225,2.714c0,3.373-.922,7.544-3.894,10.516a15.047,15.047,0,0,1-11.476,4.615A16.686,16.686,0,0,1,0,16.455,16.686,16.686,0,0,1,16.694,0,15.679,15.679,0,0,1,27.969,4.534L24.8,7.707A11.46,11.46,0,0,0,16.689,4.5a11.8,11.8,0,0,0-11.8,11.959,11.8,11.8,0,0,0,11.8,11.959A11.008,11.008,0,0,0,25,25.122a9.319,9.319,0,0,0,2.437-5.566Z" transform="translate(0.172 0.225)" fill="#979797"/>
  </g>
</svg>
